<svg id="Layer_1" data-name="Layer 1" xmlns="http://www.w3.org/2000/svg" viewBox="0 0 874.35 152.78"><defs><style>.cls-1,.cls-2,.cls-3{fill:#d35e2c;stroke:#fff;stroke-miterlimit:10;}.cls-1{stroke-width:2px;}.cls-2{stroke-width:4px;}.cls-3{stroke-width:3px;}.cls-4{fill:#5e2cd3;}</style></defs><rect class="cls-1" x="37.13" y="36.99" width="163.57" height="76.62" transform="translate(-41.43 45.55) rotate(-22.96)"/><rect class="cls-2" x="35.07" y="43.68" width="170.3" height="76.62" transform="translate(-39.56 29.95) rotate(-16.18)"/><rect class="cls-2" x="2" y="44.28" width="193.51" height="106.49" rx="17.53"/><circle class="cls-3" cx="98.75" cy="97.53" r="10.46"/><path class="cls-4" d="M242.41,80.47v42.65H229.72V80.47Zm24.34,0L255.5,99.81l11.19,23.31H252.44l-9.66-23.56,10.94-19.09Z" transform="translate(-21.47 -6.81)"/><path class="cls-4" d="M293.75,97.06v9.5h-8.28a4.32,4.32,0,0,0-2.39.5,1.93,1.93,0,0,0-.7,1.69,1.88,1.88,0,0,0,.72,1.76,6.5,6.5,0,0,0,2.93.43h8.54v12.18h-10q-7,0-10.75-3.36t-3.72-9.7V93.34q0-6.12,3.51-9.5t9.89-3.37h11V92.72h-8.1c-2.19,0-3.28.71-3.28,2.12a1.89,1.89,0,0,0,.78,1.74,5.72,5.72,0,0,0,2.78.48Z" transform="translate(-21.47 -6.81)"/><path class="cls-4" d="M337.88,80.28V92.44a7,7,0,0,0-2.13-.47A3.32,3.32,0,0,0,333.28,93a3.57,3.57,0,0,0-1,2.56,7,7,0,0,0,1.13,3.25l1,1.69a17.66,17.66,0,0,1,2.62,8.81,14.12,14.12,0,0,1-4.42,10.53,14.88,14.88,0,0,1-10.8,4.32,14.12,14.12,0,0,1-6.06-1.41V110.44a6.19,6.19,0,0,0,3.22,1.15,4.06,4.06,0,0,0,2.76-1,3,3,0,0,0,1.11-2.39c0-.63-.59-2-1.78-4.1a20.1,20.1,0,0,1-2.84-10,14.28,14.28,0,0,1,4.3-10.39,13.91,13.91,0,0,1,10.26-4.36A15.81,15.81,0,0,1,337.88,80.28Z" transform="translate(-21.47 -6.81)"/><path class="cls-4" d="M359.78,101.72V113h-3.65v10.15H343.44V96q0-7.87,4.3-12.24t12.08-4.36q7.5,0,11.09,4t3.59,12.2v27.56H361.82V96.4a7.06,7.06,0,0,0-.6-3.46,2.27,2.27,0,0,0-2.12-1q-3,0-3,4.43v5.32Z" transform="translate(-21.47 -6.81)"/><path class="cls-4" d="M381.32,80.47H394v25.34c0,2,.32,3.3,1,4s1.89,1,3.76,1h.66v12.37H396q-6.93,0-10.81-4t-3.87-11.24Z" transform="translate(-21.47 -6.81)"/><path class="cls-4" d="M419.13,101.72V113h-3.66v10.15H402.78V96q0-7.87,4.3-12.24t12.08-4.36q7.5,0,11.09,4t3.6,12.2v27.56H421.16V96.4a7.2,7.2,0,0,0-.59-3.46,2.29,2.29,0,0,0-2.13-1q-3,0-3,4.43v5.32Z" transform="translate(-21.47 -6.81)"/><path class="cls-4" d="M454.22,91.94v31.18H441.53V80.47h16.29q7.43,0,11.53,3.68a13.5,13.5,0,0,1,4.56,10.47q0,6.48-5.66,10.91l7.32,17.59H462.25l-6.15-13.75v-11h1c2.66,0,4-1.14,4-3.43,0-2-1.55-3-4.63-3Z" transform="translate(-21.47 -6.81)"/><path class="cls-4" d="M509.88,80.47l-12.06,19v23.68H485.13V99.44L473,80.47h12.88l5.5,8.78,5.9-8.78Z" transform="translate(-21.47 -6.81)"/><path class="cls-4" d="M556.85,102.28l13.28.34q-1.32,10.32-7.14,15.94t-15.21,5.63a21.71,21.71,0,0,1-15.95-6.39,21.49,21.49,0,0,1-6.42-15.86,21.71,21.71,0,0,1,6.55-16,22,22,0,0,1,16.14-6.5,21.27,21.27,0,0,1,15.75,6.38q4.36,4.41,6.18,12.28L556.44,99q-2.28-7-8.66-7a8.78,8.78,0,0,0-6.7,2.81,10,10,0,0,0-2.64,7.16,9.64,9.64,0,0,0,2.59,6.92,9.52,9.52,0,0,0,13,.33A11.06,11.06,0,0,0,556.85,102.28Z" transform="translate(-21.47 -6.81)"/><path class="cls-4" d="M591.6,101.72V113h-3.66v10.15H575.25V96q0-7.87,4.3-12.24t12.08-4.36q7.5,0,11.09,4t3.6,12.2v27.56H593.63V96.4a7.06,7.06,0,0,0-.6-3.46,2.27,2.27,0,0,0-2.12-1q-3,0-3,4.43v5.32Z" transform="translate(-21.47 -6.81)"/><path class="cls-4" d="M613.13,80.47h12.69v25.34c0,2,.31,3.3.95,4s1.89,1,3.76,1h.66v12.37h-3.37q-6.95,0-10.82-4t-3.87-11.24Z" transform="translate(-21.47 -6.81)"/><path class="cls-4" d="M664.32,102.28l13.28.34q-1.32,10.32-7.14,15.94t-15.21,5.63a21.71,21.71,0,0,1-16-6.39,21.49,21.49,0,0,1-6.42-15.86,21.74,21.74,0,0,1,6.54-16,22.05,22.05,0,0,1,16.15-6.5,21.27,21.27,0,0,1,15.75,6.38q4.36,4.41,6.18,12.28L663.91,99q-2.28-7-8.66-7a8.77,8.77,0,0,0-6.7,2.81,10,10,0,0,0-2.64,7.16,9.64,9.64,0,0,0,2.59,6.92,9.52,9.52,0,0,0,13,.33A11.06,11.06,0,0,0,664.32,102.28Z" transform="translate(-21.47 -6.81)"/><path class="cls-4" d="M713.57,80.47v27.65q0,7.32-4.36,11.69t-11.61,4.38q-7.23,0-11.05-4.25t-3.83-12.22V80.47h12.69v27.22q0,3.9,2.78,3.9t2.69-3.9V80.47Z" transform="translate(-21.47 -6.81)"/><path class="cls-4" d="M720.41,80.47H733.1v25.34c0,2,.31,3.3.95,4s1.89,1,3.77,1h.65v12.37H735.1q-6.95,0-10.82-4t-3.87-11.24Z" transform="translate(-21.47 -6.81)"/><path class="cls-4" d="M758.22,101.72V113h-3.65v10.15H741.88V96q0-7.87,4.29-12.24t12.08-4.36q7.5,0,11.1,4t3.59,12.2v27.56H760.25V96.4a7.2,7.2,0,0,0-.59-3.46,2.29,2.29,0,0,0-2.13-1c-2,0-3,1.48-3,4.43v5.32Z" transform="translate(-21.47 -6.81)"/><path class="cls-4" d="M799.19,92.72v30.4H786.5V92.72h-9.72V80.47h32.1V92.72Z" transform="translate(-21.47 -6.81)"/><path class="cls-4" d="M833.78,79.4A21,21,0,0,1,849.33,86a22.48,22.48,0,0,1-.05,31.65A22.44,22.44,0,0,1,811,101.78a21.46,21.46,0,0,1,6.61-15.88A22.21,22.21,0,0,1,833.78,79.4ZM833.41,92a8.9,8.9,0,0,0-6.66,2.87,10.11,10.11,0,0,0,0,13.88,9.16,9.16,0,0,0,13.31,0,10.18,10.18,0,0,0,0-13.9A8.87,8.87,0,0,0,833.41,92Z" transform="translate(-21.47 -6.81)"/><path class="cls-4" d="M874.47,91.94v31.18H861.78V80.47h16.29q7.42,0,11.53,3.68a13.5,13.5,0,0,1,4.56,10.47q0,6.48-5.66,10.91l7.32,17.59H882.5l-6.15-13.75v-11h1c2.66,0,4-1.14,4-3.43,0-2-1.55-3-4.63-3Z" transform="translate(-21.47 -6.81)"/></svg>